<svg width="66" height="66" viewBox="0 0 66 66" fill="none" xmlns="http://www.w3.org/2000/svg">
<path d="M0.376953 18.4875C0.376953 21.225 2.59703 23.4375 5.34391 23.4375H33.8475C38.2124 23.4375 41.7683 26.9625 41.7683 31.3312V60.9187C41.7683 63.7312 44.0636 66.0188 46.8858 66.0188C49.7079 66.0188 52.0032 63.7312 52.0032 60.9187V31.1437C52.0032 21.4313 44.1013 13.5375 34.3367 13.5375H5.34391C2.59703 13.5375 0.376953 15.75 0.376953 18.4875Z" fill="url(#paint0_linear_19_441)"/>
<path d="M65.4739 47.5125C65.4739 44.775 63.2539 42.5625 60.507 42.5625H32.0034C27.6385 42.5625 24.0826 39.0375 24.0826 34.6687V5.1C24.0826 2.2875 21.7873 0 18.9651 0C16.143 0 13.8477 2.2875 13.8477 5.1V34.8562C13.8477 44.5687 21.7496 52.4625 31.5142 52.4625H60.507C63.2539 52.4625 65.4739 50.25 65.4739 47.5125Z" fill="url(#paint1_linear_19_441)"/>
<defs>
<linearGradient id="paint0_linear_19_441" x1="0.377687" y1="39.7686" x2="94.0208" y2="39.7686" gradientUnits="userSpaceOnUse">
<stop offset="0.1414" stop-color="#7B5CEE"/>
<stop offset="0.5599" stop-color="#A6C8F6"/>
</linearGradient>
<linearGradient id="paint1_linear_19_441" x1="65.4764" y1="26.2314" x2="-28.1667" y2="26.2314" gradientUnits="userSpaceOnUse">
<stop offset="0.1392" stop-color="#A6C8F6"/>
<stop offset="0.5526" stop-color="#7B5CEE"/>
</linearGradient>
</defs>
</svg>
